<svg xmlns:xlink="http://www.w3.org/1999/xlink" xmlns="http://www.w3.org/2000/svg" viewBox="0 0 100 100" width="100"  height="100" >
         <circle class="st0" cx="50" cy="50" r="46" stroke="#FFFFFF" fill="none"></circle>
            <path d="M67.3,50.6c0,0.1,0,0.2,0,0.3c0,1.1,0,2.2,0,3.3c0,0.3-0.1,0.4-0.3,0.5c-1.8,0.9-3.6,1.7-5.4,2.3c-2.5,0.9-5.1,1.5-7.7,2
	c-1.4,0.2-2.7,0.4-4.1,0.6c-0.9,0.1-1.9,0.2-2.8,0.2c-0.9,0.1-1.8,0.1-2.7,0.1c-1.3,0-2.6-0.1-3.8-0.2c-2.2-0.2-4.4-0.6-6.6-1.2
	c-1.9-0.6-3.7-1.4-5.4-2.6c-1.6-1.2-2.9-2.6-3.7-4.4c-0.5-1.1-0.8-2.2-0.9-3.3c-0.1-0.6-0.1-1.1-0.1-1.7c0-2.2,0.6-4.3,1.6-6.3
	c1-1.8,2.3-3.4,3.9-4.8l0.1-0.1h0.1c0,0.1,0,0.1,0,0.2c0,0.3,0,0.6,0,0.9c0,0.2-0.1,0.4-0.2,0.5c-1,1.2-1.9,2.5-2.5,4
	c-0.5,1.3-0.9,2.7-1,4.1c-0.1,2,0.3,3.8,1.3,5.5c0.8,1.4,2,2.4,3.4,3.2s3,1.4,4.6,1.8c1.1,0.3,2.3,0.5,3.4,0.6
	c0.8,0.1,1.6,0.2,2.4,0.2c1.3,0,2.7,0.1,4,0c0.9,0,1.8-0.1,2.7-0.2c0.8-0.1,1.6-0.1,2.3-0.2c1-0.1,2-0.3,3-0.5
	c2.4-0.4,4.8-1.1,7.1-1.8c2.4-0.8,4.7-1.7,6.9-3c0,0,0.1,0,0.1-0.1C67.2,50.6,67.3,50.6,67.3,50.6z" fill="#FFFFFF"></path>
            <path d="M68.3,48.5c0-0.2,0-0.3,0-0.4c0-0.7,0-1.5,0-2.2c0-0.2,0.1-0.4,0.3-0.5c1.4-0.9,2.6-2,3.5-3.4c0.8-1.2,1.3-2.6,1.4-4
	c0.2-2.2-0.5-4.2-1.9-5.9c-1.1-1.3-2.5-2.2-4-2.9c-1.5-0.7-3-1.1-4.6-1.4c-1-0.2-2.1-0.3-3.1-0.4c-1.3-0.1-2.5-0.1-3.8-0.1
	c-1.1,0-2.2,0.1-3.3,0.2c-3.2,0.3-6.3,1-9.4,1.9c-2.7,0.8-5.3,1.8-7.8,3.1c-0.1,0-0.2,0.1-0.3,0.1c-0.1-0.4-0.1-0.7,0-1
	c0-0.1,0.1-0.2,0.2-0.2c0.7-0.4,1.4-0.8,2.2-1.2c3.4-1.7,6.9-3,10.6-3.8c1.3-0.3,2.5-0.5,3.8-0.7c0.9-0.1,1.8-0.2,2.8-0.3
	c1.3-0.1,2.6-0.2,3.9-0.1c0.9,0,1.8,0.1,2.7,0.2c1.9,0.2,3.8,0.5,5.6,1.1s3.5,1.3,5,2.5c1.7,1.3,3,2.9,3.7,4.9
	c0.5,1.4,0.6,2.9,0.5,4.4c-0.4,4.5-3.7,8.4-7.5,10C68.6,48.4,68.4,48.5,68.3,48.5z" fill="#FFFFFF"></path>
            <path d="M55.4,44.1c0,1.2,0.7,2,1.8,2.2c0.4,0.1,0.9,0,1.3,0c0.5-0.1,0.9-0.3,1.3-0.6c0.1-0.1,0.3-0.2,0.4-0.3
	c0.3,0.1,1.5,1.3,1.7,1.6c-0.1,0.1-0.1,0.1-0.2,0.2c-0.9,0.8-1.9,1.3-3.1,1.5c-0.8,0.1-1.7,0.1-2.5-0.1c-1.5-0.4-2.5-1.3-3.1-2.8
	c-0.6-1.6-0.6-3.3,0-5c0.7-1.8,1.9-2.8,3.8-3.1c0.9-0.1,1.8-0.1,2.6,0.3c1.1,0.5,1.8,1.3,2.3,2.4c0.3,0.8,0.5,1.6,0.5,2.5
	c0,0.3,0,0.6,0,0.9c0,0.3,0,0.3-0.3,0.3c-0.1,0-0.2,0-0.3,0c-1.9,0-3.8,0-5.8,0C55.7,44.1,55.6,44.1,55.4,44.1z M59.4,42.1
	c0.1-0.6-0.2-1.4-0.7-1.8c-0.2-0.1-0.4-0.2-0.6-0.3c-0.5-0.1-1-0.1-1.5,0.2c-0.6,0.3-1.1,1-1.1,1.9C56.8,42.1,58.1,42.1,59.4,42.1z" fill="#FFFFFF"></path>
            <path d="M39.3,48.5c-0.9,0-1.8,0-2.7,0l0,0l0,0v-0.1c0-3.4,0-6.8,0-10.3c0-0.1,0-0.1,0-0.2c0.1,0,0.2,0,0.3,0c1.8,0,3.7,0,5.5,0
	c1.5,0,2.7,1,2.9,2.5c0,0.3,0.1,0.6,0.1,0.8c0,2.3,0,4.6,0,6.8c0,0.1,0,0.3,0,0.4c-0.3,0.1-2.4,0.1-2.8,0c0-0.1,0-0.3,0-0.4
	c0-2.3,0-4.6,0-6.8c0-0.2,0-0.3-0.1-0.5c-0.1-0.3-0.3-0.5-0.6-0.6c-0.2,0-0.3-0.1-0.5-0.1c-0.6,0-1.2,0-1.8,0c-0.3,0-0.3,0-0.3,0.3
	c0,0.9,0,1.8,0,2.7c0,1.7,0,3.3,0,5C39.3,48.2,39.3,48.3,39.3,48.5z" fill="#FFFFFF"></path>
            <path d="M50,34.9c0,1,0,1.9,0,2.9c0.7,0,1.3,0,2,0c0.1,0.4,0,0.8,0,1.1c0,0.4,0,0.7,0,1.1c-0.2,0-0.4,0-0.6,0c-0.4,0-0.7,0-1.1,0
	C50,40,50,40,50,40.3c0,0.8,0,1.5,0,2.3s0,1.6,0,2.5c0,0.1,0,0.2,0,0.3c0.1,0.5,0.3,0.8,0.8,0.8c0.3,0,0.6,0,0.9,0
	c0.1,0,0.3,0.1,0.3,0.2c0,0.7,0,1.3,0,2v0.1c-0.1,0-0.2,0-0.2,0c-0.5,0-1.1,0-1.6,0c-1.4-0.1-2.4-0.8-2.8-2c-0.1-0.3-0.2-0.7-0.2-1
	c0-3.4,0-6.7,0-10.1v-0.1c0-0.3,0-0.3,0.3-0.3c0.6,0,1.2,0,1.8,0C49.6,34.9,49.8,34.9,50,34.9z" fill="#FFFFFF"></path>
            <path d="M66.5,48.4c-1.2,0-2.5-0.7-2.7-2.1c0-0.3-0.1-0.6-0.1-0.8c0-3.8,0-7.7,0-11.5c0-0.1,0-0.3,0-0.4c0.3-0.1,2.3-0.1,2.8,0
	c0,0.1,0,0.1,0.1,0.2c0,0.1,0,0.1,0,0.2c0,4.7,0,9.4,0,14C66.5,48.1,66.5,48.2,66.5,48.4z" fill="#FFFFFF"></path>
            <path d="M34.1,48.6c-0.1,0-0.3,0-0.5-0.1c-1.4-0.2-2.2-1.2-2.3-2.6c0-0.1,0-0.2,0-0.4c0-2.4,0-4.9,0-7.3c0-0.1,0-0.3,0-0.4
	c0.3-0.1,2.4-0.1,2.8,0C34.3,38.2,34.3,48.3,34.1,48.6z" fill="#FFFFFF"></path>
            <path d="M58,74.5c-0.3,0-0.6,0-0.8,0s-0.3-0.2-0.4-0.4c0-0.1,0-0.2,0-0.3c-0.1,0-0.1,0.1-0.1,0.1c-0.8,0.9-2.1,1-3.1,0.6
	c-0.7-0.3-1.1-0.8-1.4-1.5c-0.4-1.1-0.4-2.2,0-3.3c0.7-1.7,2.5-2,3.7-1.5c0.2,0.1,0.4,0.3,0.7,0.4c0.1,0,0.1,0.1,0.2,0.2
	c0-0.2,0-0.3,0-0.4c0-0.8,0-1.7,0-2.5c0-0.1,0-0.3,0-0.5c0.4,0,0.7,0,1,0c0.1,0,0.2,0.1,0.2,0.2s0,0.2,0,0.3c0,2.7,0,5.5,0,8.2
	C58,74.1,58,74.3,58,74.5z M53.2,71.3c0,0.4,0.1,0.9,0.2,1.3c0.2,0.4,0.4,0.7,0.8,0.9c0.9,0.4,2.1,0.2,2.5-1.1
	c0.2-0.7,0.2-1.4,0-2.1c-0.1-0.4-0.3-0.7-0.7-0.9c-1-0.6-2.3-0.2-2.6,0.9C53.3,70.5,53.2,70.9,53.2,71.3z" fill="#FFFFFF"></path>
            <path d="M64.8,71.6c-1.4,0-2.9,0-4.3,0c-0.1,0.9,0.5,1.7,1.4,1.9c0.7,0.1,1.5,0.1,2.1-0.4c0,0,0.1,0,0.2-0.1
	c0.2,0.2,0.3,0.5,0.5,0.8c-0.1,0.1-0.3,0.2-0.4,0.3c-0.7,0.4-1.4,0.5-2.2,0.5c-0.2,0-0.4-0.1-0.7-0.1c-0.9-0.2-1.6-0.8-1.9-1.6
	c-0.4-1-0.5-2.1,0-3.1c0.4-1.2,1.4-1.7,2.6-1.8c0.4,0,0.8,0,1.2,0.2c0.9,0.3,1.4,1,1.6,2C65,70.7,65,71.1,64.8,71.6z M63.7,70.6
	c0.1-0.9-0.3-1.5-1.1-1.6c-0.2,0-0.5,0-0.7,0c-0.7,0.1-1.2,0.6-1.4,1.5v0.1C61.6,70.6,62.7,70.6,63.7,70.6z" fill="#FFFFFF"></path>
            <path d="M38,74.4c-0.4,0-0.8,0-1.1,0c-0.1-0.2-0.1-5.8,0-6.3c0.3-0.1,0.6-0.1,0.8,0c0.2,0,0.3,0.2,0.3,0.4c0,0.1,0,0.2,0,0.3
	c0,0,0.1,0,0.1-0.1c0.7-0.9,2.2-1,3.1-0.6c0.7,0.3,1,0.8,1.1,1.5c0,0.3,0.1,0.5,0.1,0.8c0,1.2,0,2.4,0,3.6c0,0.1,0,0.3,0,0.4
	c-0.4,0-0.8,0-1.2,0c0-0.2,0-0.3,0-0.5c0-1.1,0-2.3,0-3.4c0-0.2,0-0.4-0.1-0.7c-0.1-0.5-0.4-0.8-0.9-0.9c-1.1-0.2-1.9,0.5-2.1,1.5
	c0,0.3-0.1,0.5-0.1,0.8c0,0.9,0,1.8,0,2.7C38,74.1,38,74.3,38,74.4z" fill="#FFFFFF"></path>
            <path d="M43.4,73.7c0.2-0.3,0.3-0.5,0.5-0.8c0.1,0.1,0.2,0.1,0.3,0.2c0.6,0.4,1.2,0.6,1.9,0.5c0.2,0,0.4-0.1,0.6-0.2
	c0.3-0.2,0.4-0.4,0.4-0.8c0-0.3-0.2-0.5-0.4-0.6c-0.5-0.2-0.9-0.3-1.4-0.5c-0.3-0.1-0.5-0.2-0.8-0.3c-0.6-0.3-0.9-0.8-0.9-1.5
	s0.3-1.2,0.9-1.5c0.6-0.3,1.3-0.4,1.9-0.3c0.4,0,0.9,0.1,1.3,0.4c0.1,0.1,0.3,0.2,0.5,0.3c-0.2,0.3-0.3,0.6-0.4,0.8
	c-0.1-0.1-0.2-0.1-0.3-0.1C47,69.1,46.6,69,46.1,69c-0.3,0-0.6,0-0.9,0.2c-0.2,0.1-0.4,0.3-0.4,0.6c0,0.3,0.1,0.5,0.3,0.6
	c0.1,0.1,0.3,0.1,0.5,0.2c0.4,0.1,0.8,0.2,1.2,0.4c0.2,0.1,0.4,0.1,0.6,0.2c1,0.5,1.2,1.7,0.6,2.6c-0.3,0.4-0.8,0.7-1.3,0.8
	c-0.8,0.1-1.5,0.1-2.2-0.2C44,74.2,43.6,74,43.4,73.7z" fill="#FFFFFF"></path>
            <path d="M50.7,74.4c-0.4,0-0.7,0-1.1,0c0-0.1,0-0.2,0-0.3c0-1.9,0-3.8,0-5.6c0-0.3,0-0.4,0.3-0.4s0.6,0,0.8,0
	C50.8,68.5,50.7,74.2,50.7,74.4z" fill="#FFFFFF"></path>
            <path d="M34.2,33.8c0,0.8,0,1.7,0,2.5c-0.3,0.1-2.5,0.1-2.8,0c0-0.8,0-1.7,0-2.5C31.7,33.8,33.8,33.7,34.2,33.8z" fill="#FFFFFF"></path>
            <path d="M34,68.1c0.4-0.1,0.8-0.1,1.2,0c0,2.1,0,4.2,0,6.3c-0.4,0-0.8,0-1.2,0c0-0.1,0-0.2,0-0.3c0-1.9,0-3.9,0-5.8
	C33.9,68.3,34,68.2,34,68.1z" fill="#FFFFFF"></path>
            <path d="M69.5,36.4c-0.8,0-1.5-0.6-1.5-1.5c0-0.8,0.6-1.5,1.5-1.5c0.8,0,1.5,0.7,1.5,1.5C71,35.8,70.4,36.4,69.5,36.4z M70.2,35.8
	c0.1-0.1,0.1-0.1,0.2-0.2c0.4-0.5,0.3-1.2-0.1-1.6c-0.4-0.4-1.1-0.4-1.5,0s-0.5,1.1-0.1,1.6C69,36.1,69.7,36.2,70.2,35.8L70.2,35.8z
	" fill="#FFFFFF"></path>
            <path d="M67.6,66.9c0.1-0.2,0.2-0.4,0.3-0.6c0.2-0.3,0.2-0.3,0.6-0.2c0,0.2,0,0.5,0,0.8s0,0.5,0,0.8c-0.3,0.2-0.4,0.1-0.4-0.2
	c0-0.2,0-0.4,0-0.6C68,67,68,67.1,67.9,67.2c-0.1,0.2-0.4,0.2-0.5,0c-0.1-0.1-0.1-0.2-0.2-0.3c0,0.2,0,0.3,0,0.5
	c0,0.3-0.1,0.3-0.4,0.2c0-0.5,0-1.1,0-1.6c0.3-0.1,0.4-0.1,0.5,0.2C67.4,66.5,67.5,66.7,67.6,66.9z" fill="#FFFFFF"></path>
            <path d="M35.2,66.3c0,0.2,0,0.3,0,0.5c0,0.1-0.1,0.2-0.2,0.2c-0.3,0-0.6,0-0.9,0c-0.1,0-0.2-0.1-0.2-0.2c0-0.3,0-0.6,0-1
	c0-0.1,0.1-0.2,0.2-0.2c0.3,0,0.6,0,0.9,0c0.1,0,0.2,0.1,0.2,0.2C35.2,66,35.2,66.1,35.2,66.3z" fill="#FFFFFF"></path>
            <path d="M50.7,65.6c0,0.4,0,0.9,0,1.3c-0.4,0-0.7,0-1.1,0c-0.1,0-0.1-0.1-0.1-0.2c0-0.3,0-0.7,0-1c0-0.1,0.1-0.2,0.2-0.2
	C50,65.6,50.3,65.6,50.7,65.6z" fill="#FFFFFF"></path>
            <path d="M65,66.1c0.1,0,0.2,0,0.2,0c0.3,0,0.7,0,1,0c0.1,0,0.1,0,0.2,0c0.1,0.1,0.1,0.1,0.1,0.2s-0.1,0.1-0.1,0.1
	c-0.1,0-0.2,0-0.4,0c0,0.2,0,0.5,0,0.7c0,0.1,0,0.2,0,0.3c0,0.3-0.1,0.4-0.4,0.2c0-0.4,0-0.8,0-1.2c-0.1,0-0.2,0-0.3,0
	C64.9,66.4,64.9,66.4,65,66.1z" fill="#FFFFFF"></path>
            <path d="M70.3,35.8c-0.3,0.1-0.5,0-0.6-0.3c-0.1-0.1-0.2-0.3-0.3-0.4c-0.1,0.2-0.1,0.3-0.1,0.5s-0.1,0.2-0.2,0.2
	c-0.2,0-0.2-0.1-0.2-0.2c0-0.5,0-0.9,0-1.4c0-0.2,0.1-0.2,0.2-0.2c0.2,0,0.5,0,0.7,0c0.4,0.1,0.6,0.6,0.3,0.9c0,0.1-0.1,0.1-0.2,0.2
	c0.1,0.1,0.2,0.3,0.2,0.4C70.2,35.6,70.2,35.7,70.3,35.8L70.3,35.8z M69.3,34.7c0.2,0,0.3,0.1,0.4-0.1c0,0,0-0.1,0-0.2
	c-0.1-0.1-0.3-0.1-0.4-0.1C69.3,34.5,69.3,34.6,69.3,34.7z" fill="#FFFFFF"></path>

        </svg>