<svg xmlns:xlink="http://www.w3.org/1999/xlink" xmlns="http://www.w3.org/2000/svg" viewBox="0 0 100 100" width="100"  height="100" >
         <circle class="st0" cx="50" cy="50" r="46" stroke="#FFFFFF" fill="none"></circle>
	<path d="M71.8,46.8H69v-2.2c0-0.5-0.4-1-1-1h-0.8c-0.5,0-1,0.4-1,1v2.2h-5.1l-0.2-18.1c0-1.1-0.6-2-1.3-2h-0.4
		c-0.7,0-1.4,0.9-1.4,2l-0.2,18.1h-6.2v-3.2h1c0.9,0,1.6-0.7,1.6-1.6c0-0.9-0.7-1.6-1.6-1.6h-4.9c-0.9,0-1.6,0.7-1.6,1.6
		c0,0.9,0.7,1.6,1.6,1.6h1.1v3.2h-6.3l-0.2-18.1c0-1.1-0.6-2-1.3-2h-0.4c-0.7,0-1.4,0.9-1.4,2l-0.2,18.1h-4.5
		c-0.1-0.7-0.8-1.2-1.6-1.2s-1.4,0.5-1.6,1.2h-3c-1.6,0-2.9,1.3-2.9,2.9v20.6c0,1.6,1.3,2.9,2.9,2.9h43.5c1.6,0,2.9-1.3,2.9-2.9
		V49.7C74.7,48.1,73.4,46.8,71.8,46.8z M71.8,70.4L71.8,70.4l-43.6,0.1c0,0-0.1,0-0.1-0.1V49.7c0,0,0-0.1,0.1-0.1h43.5
		c0,0,0.1,0,0.1,0.1V70.4z" fill="#FFFFFF"></path>
        </svg>