<svg xmlns:xlink="http://www.w3.org/1999/xlink" xmlns="http://www.w3.org/2000/svg" viewBox="0 0 100 100" width="100"  height="100" >
         <circle class="st0" cx="50" cy="50" r="46" stroke="#FFFFFF" fill="none"></circle>
<path d="M65.5,35.2L65.5,35.2c-0.5,0.2-0.8,0.6-1.2,0.9c-7.9,6.6-15.7,13.2-23.6,19.7c-0.3,0.3-0.4,0.5-0.3,0.9
	c0.5,1.5,0.9,3.1,1.3,4.6c0,0.2,0.1,0.3,0.2,0.5C49.8,52.9,57.7,44.1,65.5,35.2 M58.7,69.7c-0.2-0.1-0.3-0.2-0.5-0.3
	c-4.1-2.6-8.2-5.2-12.2-7.8c-0.3-0.2-0.5-0.2-0.7,0c-1.2,0.9-2.5,1.7-3.8,2.5c-0.1,0.1-0.3,0.2-0.4,0.3c-0.8-2.6-1.6-5.1-2.4-7.6
	c-0.1-0.3-0.3-0.5-0.6-0.6c-3.2-1.3-6.5-2.7-9.7-4.1c-0.7-0.3-1.5-0.6-2.3-1c14.7-7,29.3-13.9,44-20.8
	C66.3,43.5,62.5,56.6,58.7,69.7" fill="#FFFFFF"></path>
        </svg>