<svg xmlns:xlink="http://www.w3.org/1999/xlink" xmlns="http://www.w3.org/2000/svg" viewBox="0 0 100 100" width="100"  height="100" >
         <circle class="st0" cx="49.9" cy="50.1" r="45.9" stroke="#FFFFFF" fill="none"></circle>
	<g fill="#FFFFFF">
		<path d="M56.6,48.7c0.1-0.2,0.3-0.4,0.4-0.6c2.2-3.2,4.5-6.4,6.7-9.6c0.2-0.3,0.5-0.5,0.9-0.5c2.1,0,4.2,0,6.3,0
			c0.2,0,0.4,0,0.7,0c-3,3.9-5.9,7.8-8.8,11.6c3.2,4.1,6.4,8.1,9.6,12.2c-0.3,0-0.5,0-0.6,0c-2.3,0-4.6,0-7,0
			c-0.4,0-0.6-0.1-0.9-0.5c-2.3-3.2-4.6-6.3-6.8-9.4c-0.2-0.2-0.3-0.4-0.6-0.6c0,3.5,0,7,0,10.5c-2.2,0-4.3,0-6.4,0
			c0-8,0-15.9,0-23.9c2.1,0,4.3,0,6.4,0c0,3.5,0,7.1,0,10.6C56.5,48.7,56.6,48.7,56.6,48.7z" fill="#FFFFFF"></path>
		<path d="M43.8,38.2c0,4.6,0,9.1,0,13.7c0.9,0,1.7,0,2.6,0c0,1.6,0,3.1,0,4.7c-0.9,0-1.7,0-2.6,0c0,1.8,0,3.5,0,5.3
			c-1.8,0-3.6,0-5.5,0c0-1.8,0-3.5,0-5.3c-3.7,0-7.3,0-10.9,0c0-1.1,0.1-2.2,0-3.2s0.2-1.9,0.8-2.7c2.6-4,5.2-8,7.8-12
			c0.2-0.4,0.5-0.5,0.9-0.5c2,0,4.1,0,6.1,0C43.3,38.2,43.5,38.2,43.8,38.2z M38.4,42.8c-1.8,2.9-3.8,6-5.8,9.1c2,0,3.8,0,5.8,0
			C38.4,48.8,38.4,45.7,38.4,42.8z" fill="#FFFFFF"></path>
	</g>
        </svg>