<svg xmlns:xlink="http://www.w3.org/1999/xlink" xmlns="http://www.w3.org/2000/svg" viewBox="0 0 100 100" width="100"  height="100" >
         <circle class="st0" cx="50" cy="50" r="46" stroke="#FFFFFF" fill="none"></circle>
	<path d="M60.3,23.6c-3.5,0-6.3,2.8-6.3,6.3s2.8,6.3,6.3,6.3s6.3-2.8,6.3-6.3S63.8,23.6,60.3,23.6z" fill="#FFFFFF"></path>
	<path d="M40.2,24.3c-3.5,0-6.3,2.8-6.3,6.3s2.8,6.3,6.3,6.3s6.3-2.8,6.3-6.3S43.7,24.3,40.2,24.3z M40.2,35c-2.4,0-4.4-2-4.4-4.4
		s2-4.4,4.4-4.4s4.4,2,4.4,4.4S42.6,35,40.2,35z" fill="#FFFFFF"></path>
	<path d="M60.9,63.8c-3.5,0-6.3,2.8-6.3,6.3s2.8,6.3,6.3,6.3s6.3-2.8,6.3-6.3C67.2,66.6,64.4,63.8,60.9,63.8z M60.9,74.5
		c-2.4,0-4.4-2-4.4-4.4s2-4.4,4.4-4.4s4.4,2,4.4,4.4S63.3,74.5,60.9,74.5z" fill="#FFFFFF"></path>
	<path d="M40.2,63.8c-3.5,0-6.3,2.8-6.3,6.3s2.8,6.3,6.3,6.3s6.3-2.8,6.3-6.3S43.7,63.8,40.2,63.8z M40.2,74.5c-2.4,0-4.4-2-4.4-4.4
		s2-4.4,4.4-4.4s4.4,2,4.4,4.4C44.6,72.5,42.6,74.5,40.2,74.5z" fill="#FFFFFF"></path>
	<path d="M72,42.2c-3.5,0-6.3,2.8-6.3,6.3s2.8,6.3,6.3,6.3s6.3-2.8,6.3-6.3S75.4,42.2,72,42.2z M72,52.9c-2.4,0-4.4-2-4.4-4.4
		s2-4.4,4.4-4.4s4.4,2,4.4,4.4S74.4,52.9,72,52.9z" fill="#FFFFFF"></path>
	<path d="M28,42.2c-3.5,0-6.3,2.8-6.3,6.3s2.8,6.3,6.3,6.3s6.3-2.8,6.3-6.3S31.5,42.2,28,42.2z M28,52.9c-2.4,0-4.4-2-4.4-4.4
		s2-4.4,4.4-4.4s4.4,2,4.4,4.4S30.5,52.9,28,52.9z" fill="#FFFFFF"></path>
	<path d="M56.4,44.9h-6.2l-0.1,2.4c0.3-0.1,0.8-0.2,1.4-0.2c0.8,0,1.5,0.1,2.2,0.4c0.7,0.2,1.2,0.6,1.7,1s0.9,1,1.1,1.6
		c0.3,0.6,0.4,1.4,0.4,2.2c0,0.9-0.2,1.7-0.5,2.4s-0.7,1.3-1.3,1.8c-0.5,0.5-1.2,0.8-1.9,1.1S51.7,58,50.8,58c-1.4,0-2.5-0.3-3.4-1
		s-1.5-1.7-1.9-3l3.5-0.8c0.1,0.6,0.3,1,0.7,1.4c0.4,0.3,0.9,0.5,1.4,0.5c0.7,0,1.3-0.2,1.7-0.7c0.4-0.4,0.6-1,0.6-1.7
		c0-0.5-0.1-0.9-0.3-1.3c-0.2-0.3-0.5-0.6-0.8-0.8s-0.7-0.3-1.2-0.4C50.9,50.1,50.4,50,50,50c-0.5,0-1.1,0.1-1.7,0.2
		c-0.6,0.1-1.1,0.2-1.6,0.4l0.2-8.7h9.5V44.9z" fill="#FFFFFF"></path>
        </svg>