<svg xmlns:xlink="http://www.w3.org/1999/xlink" xmlns="http://www.w3.org/2000/svg" viewBox="0 0 100 100" width="100"  height="100" >
         <g fill="#FFFFFF">
	<circle class="st0" cx="50" cy="50" r="46" stroke="#FFFFFF" fill="none"></circle>
	<path d="M39.4,63.2H21.2v-3.9l6.5-6.7c1.9-2,3.2-3.4,3.8-4.2s1-1.5,1.3-2.1c0.3-0.7,0.4-1.3,0.4-2c0-1.1-0.3-1.8-0.9-2.4
		c-0.6-0.5-1.3-0.8-2.3-0.8s-2,0.2-2.9,0.7s-1.9,1.1-3,2l-3-3.6c1.3-1.1,2.3-1.9,3.2-2.3c0.8-0.5,1.8-0.8,2.8-1.1
		c1-0.2,2.1-0.4,3.3-0.4c1.6,0,3.1,0.3,4.3,0.9c1.2,0.6,2.2,1.4,2.9,2.5s1,2.3,1,3.7c0,1.2-0.2,2.3-0.6,3.4s-1.1,2.1-2,3.3
		c-0.9,1.1-2.4,2.7-4.7,4.8L28,58.2v0.3h11.3v4.7H39.4z" fill="#FFFFFF"></path>
	<path d="M60.4,50c0,4.6-0.7,8-2.2,10.2s-3.8,3.3-6.9,3.3c-3,0-5.3-1.1-6.8-3.4c-1.5-2.3-2.3-5.6-2.3-10.1c0-4.6,0.7-8.1,2.2-10.3
		s3.8-3.3,6.9-3.3c3,0,5.3,1.2,6.8,3.5C59.6,42.2,60.4,45.6,60.4,50z M47.7,50c0,3.2,0.3,5.5,0.8,6.9c0.6,1.4,1.5,2.1,2.8,2.1
		s2.2-0.7,2.8-2.1c0.6-1.4,0.9-3.7,0.9-6.9s-0.3-5.5-0.9-6.9c-0.6-1.4-1.5-2.1-2.8-2.1s-2.2,0.7-2.8,2.1
		C47.9,44.5,47.7,46.8,47.7,50z" fill="#FFFFFF"></path>
	<path d="M67.8,62.5l-2.3-7.4h-0.1c0.1,1.5,0.1,2.5,0.1,3v4.4h-1.8V53h2.7l2.2,7.2l0,0L71,53h2.7v9.5H72V58c0-0.2,0-0.5,0-0.7
		c0-0.3,0-1,0.1-2.2H72l-2.4,7.4H67.8z" fill="#FFFFFF"></path>
	<path d="M82.7,56c0,1-0.3,1.8-0.9,2.3s-1.5,0.8-2.7,0.8h-0.9v3.4h-2V53h3c1.1,0,2,0.2,2.6,0.7C82.4,54.3,82.7,55,82.7,56z
		 M78.2,57.5h0.7c0.6,0,1.1-0.1,1.4-0.4c0.3-0.2,0.5-0.6,0.5-1.1s-0.1-0.8-0.4-1s-0.7-0.3-1.2-0.3h-0.9L78.2,57.5L78.2,57.5z" fill="#FFFFFF"></path>
</g>
        </svg>