<svg id="Layer_1" data-name="Layer 1" xmlns="http://www.w3.org/2000/svg" viewBox="0 0 251.5 276.05"><defs><style>.cls-1,.cls-2,.cls-3{fill:none;stroke-miterlimit:10;stroke-width:1.5px;}.cls-1,.cls-3{stroke:#000;}.cls-2{stroke:#c1272c;}.cls-3{stroke-dasharray:4.86 4.86;}</style></defs><title>1-fly-it</title><polyline class="cls-1" points="128.66 243.34 128.66 152.41 245.93 152.41 245.93 223.74"/><line class="cls-1" x1="205.29" y1="243.34" x2="149.23" y2="243.34"/><path class="cls-1" d="M236.77,291.16s-9.71-22-9.62-25.05c.12-4.29,8.32-18.89,8.88-17.68" transform="translate(-24.49 -15.41)"/><path class="cls-1" d="M236,261.33V217.86a5.37,5.37,0,0,1,5.18-5.52h0a5.37,5.37,0,0,1,5.17,5.52v36.47" transform="translate(-24.49 -15.41)"/><path class="cls-1" d="M246.38,254.79V240a4.82,4.82,0,0,1,4.81-4.79h0A4.81,4.81,0,0,1,256,240v14.83" transform="translate(-24.49 -15.41)"/><path class="cls-1" d="M256,254.79V240a4.82,4.82,0,0,1,4.81-4.79h0a4.81,4.81,0,0,1,4.81,4.79v14.83" transform="translate(-24.49 -15.41)"/><path class="cls-1" d="M265.62,254.79V242.91c0-2.63,1.79-4.79,4-4.79h0c2.18,0,4,2.16,4,4.79,0,0,2.64,28.36,1.32,32.78s-5.55,14.73-5.55,14.73" transform="translate(-24.49 -15.41)"/><path class="cls-1" d="M139.42,289.69s-.32-36.84,1.9-39.78S153,232,153,232" transform="translate(-24.49 -15.41)"/><path class="cls-1" d="M156.11,289s2.22-8.1,3.7-11.05,0-10.31,4.44-13.26,12.58-7.37,12.58-7.37.74,0-.74-3.68-7.4-2.21-7.4-2.21L153.16,258" transform="translate(-24.49 -15.41)"/><ellipse class="cls-1" cx="163.85" cy="207.76" rx="25.71" ry="25.6"/><ellipse class="cls-1" cx="163.85" cy="207.76" rx="3.55" ry="3.53"/><ellipse class="cls-1" cx="199.69" cy="165.18" rx="4.44" ry="4.42"/><ellipse class="cls-1" cx="216.49" cy="165.18" rx="4.44" ry="4.42"/><path class="cls-1" d="M237.22,214.06a4.37,4.37,0,0,1-.68-2.35,4.44,4.44,0,1,1,8.28,2.23" transform="translate(-24.49 -15.41)"/><ellipse class="cls-1" cx="207.93" cy="181.37" rx="4.44" ry="4.42"/><ellipse class="cls-1" cx="224.73" cy="181.37" rx="4.44" ry="4.42"/><ellipse class="cls-1" cx="233.29" cy="165.18" rx="4.44" ry="4.42"/><path class="cls-1" d="M192.38,212.15h-8.07a2,2,0,0,1-1.39-3.34l4-4a2,2,0,0,1,2.77,0l4,4A2,2,0,0,1,192.38,212.15Z" transform="translate(-24.49 -15.41)"/><path class="cls-1" d="M184.31,234.27h8.07a2,2,0,0,1,1.39,3.34l-4,4a2,2,0,0,1-2.77,0l-4-4A2,2,0,0,1,184.31,234.27Z" transform="translate(-24.49 -15.41)"/><path class="cls-1" d="M177.24,219.19v8a2,2,0,0,1-3.36,1.38l-4-4a1.94,1.94,0,0,1,0-2.76l4-4A2,2,0,0,1,177.24,219.19Z" transform="translate(-24.49 -15.41)"/><path class="cls-1" d="M199.45,227.23v-8a2,2,0,0,1,3.36-1.38l4,4a1.94,1.94,0,0,1,0,2.76l-4,4A2,2,0,0,1,199.45,227.23Z" transform="translate(-24.49 -15.41)"/><rect class="cls-1" x="139.51" y="161.13" width="18.77" height="9.97"/><path class="cls-1" d="M206.79,167.82l2.61-36.88c0-2.54,1.17-3.46,2.6-3.46h0c1.43,0,2.61.92,2.61,3.46l2.6,36.88" transform="translate(-24.49 -15.41)"/><path class="cls-1" d="M206.79,122.87c0-2.54,2.35-4.61,5.21-4.61h0c2.87,0,5.21,2.07,5.21,4.61" transform="translate(-24.49 -15.41)"/><path class="cls-1" d="M222.48,117.1c-1.35-4-5.55-6.91-10.48-6.91s-9.12,2.93-10.48,6.91" transform="translate(-24.49 -15.41)"/><rect class="cls-2" x="164.35" y="164" width="4.61" height="4.6"/><line class="cls-1" x1="117.11" y1="122.36" x2="117.11" y2="168.58"/><line class="cls-1" x1="117.11" y1="81.81" x2="117.11" y2="99.65"/><line class="cls-1" x1="101.65" y1="90.73" x2="150.75" y2="90.73"/><polyline class="cls-1" points="128.97 168.58 0.75 168.58 0.75 33.1 74.54 33.1"/><polyline class="cls-1" points="118.75 51 150.75 51 150.75 51.3 150.75 152.01"/><line class="cls-1" x1="113.04" y1="130.47" x2="150.75" y2="130.47"/><line class="cls-1" x1="0.75" y1="130.47" x2="12.14" y2="130.47"/><line class="cls-1" x1="0.75" y1="92.35" x2="38.18" y2="92.35"/><line class="cls-1" x1="0.75" y1="57.87" x2="30.85" y2="57.87"/><line class="cls-1" x1="22.72" y1="98.03" x2="22.72" y2="51.96"/><line class="cls-1" x1="22.72" y1="43.86" x2="22.72" y2="38.99"/><line class="cls-1" x1="117.11" y1="108.57" x2="117.11" y2="113.44"/><path class="cls-1" d="M153.4,43.63c0,15.17-27.56,43.67-27.56,43.67S98.28,58.8,98.28,43.63a27.56,27.56,0,0,1,55.12,0Z" transform="translate(-24.49 -15.41)"/><ellipse class="cls-1" cx="101.35" cy="28.67" rx="11.75" ry="11.71"/><path class="cls-1" d="M81,148.15C81,160.25,59,183,59,183s-22-22.74-22-34.84a22,22,0,0,1,44,0Z" transform="translate(-24.49 -15.41)"/><ellipse class="cls-1" cx="34.53" cy="133.1" rx="9.37" ry="9.34"/><path class="cls-1" d="M96,58.87s-.92-.11-2.43-.14" transform="translate(-24.49 -15.41)"/><path class="cls-3" d="M88.75,59c-8.12.88-20.25,4.89-21.21,20.8-1.67,27.52,53.53,28.78,53.53,49.05,0,19-9.68,33.82-32.2,34" transform="translate(-24.49 -15.41)"/><path class="cls-1" d="M86.43,162.8c-.79,0-1.6-.08-2.43-.14" transform="translate(-24.49 -15.41)"/><rect class="cls-2" x="141.35" y="97" width="4.61" height="4.6"/><rect class="cls-2" x="5.35" y="38" width="4.61" height="4.6"/></svg>