<svg id="Layer_1" data-name="Layer 1" xmlns="http://www.w3.org/2000/svg" viewBox="0 0 251.5 276.5"><defs><style>.cls-1,.cls-2,.cls-3{fill:none;}.cls-1,.cls-3{stroke:#000;}.cls-1{stroke-linecap:round;stroke-linejoin:round;stroke-width:1.5px;}.cls-2{stroke:#c1272c;}.cls-2,.cls-3{stroke-miterlimit:10;stroke-width:1.5px;}</style></defs><title>2-hire-us</title><path class="cls-1" d="M149.33,128c32-8.67,47.53-28.62,47.53-28.62H197s25.39,32.56,78,32.56v65.12s1.81,32.56-18.14,50.65S197,287.5,197,287.5h-.12S157,265.79,137,247.7s-18.13-50.65-18.13-50.65V131.93a122.72,122.72,0,0,0,14.16-.81" transform="translate(-24.25 -11.75)"/><path class="cls-1" d="M176.88,126.32c13.41-7.74,20-16.18,20-16.18H197S219.45,139,266,139v57.67s1.61,28.83-16.06,44.85a164.54,164.54,0,0,1-16.2,12.59" transform="translate(-24.25 -11.75)"/><path class="cls-1" d="M221.39,262.28C208.33,270.55,197,276.73,197,276.73h-.11s-35.32-19.22-53-35.24-16.06-44.85-16.06-44.85V139a106.28,106.28,0,0,0,14.44-1" transform="translate(-24.25 -11.75)"/><polygon class="cls-1" points="217.82 160.66 209.41 152.26 166.32 195.23 144.99 173.95 136.57 182.34 157.91 203.63 166.32 212.03 174.74 203.63 217.82 160.66"/><rect class="cls-2" x="200.8" y="243.64" width="5.12" height="5.11"/><path class="cls-3" d="M25,57.49c2-4.49,5.24-8.12,8.55-11.65,2.2-2.35,4.61-4.51,7-6.72a1.73,1.73,0,0,0,.59-1.35A21,21,0,0,1,41.4,34a6.76,6.76,0,0,1,7-5.08,3.93,3.93,0,0,0,4-1.64A72.44,72.44,0,0,1,66.47,14.53a19.44,19.44,0,0,1,3.25-1.73,1.52,1.52,0,0,1,1.36.09,1.5,1.5,0,0,1,.06,1.36A40.46,40.46,0,0,1,68.39,19,81,81,0,0,1,57.87,30.52c-.78.74-1.58,1.47-2.32,2.25a1.3,1.3,0,0,0-.3.92,22.05,22.05,0,0,0,.53,2.69,1.37,1.37,0,0,0,.48.76C66.11,44.62,76,52.06,85.81,59.58A12.15,12.15,0,0,0,94.07,62c3-.12,5.93-.33,8.89-.34,2.3,0,4.61.22,6.92.32a12.19,12.19,0,0,0,5.7-.84,8.65,8.65,0,0,0,1.56-.9q14.69-11.14,29.36-22.32l.36-.3a4.86,4.86,0,0,0,1.67-2.77c.5-1.6,0-2.46-1.17-3.48a77.27,77.27,0,0,1-11.69-12.69,30.9,30.9,0,0,1-2.39-4.14,2,2,0,0,1,0-1.67c.42-.62,1.2-.24,1.71.07,2,1.26,4.08,2.48,6,3.91a81.22,81.22,0,0,1,12,11.52,1.4,1.4,0,0,0,1.35.56,8,8,0,0,1,4.61.67,7.55,7.55,0,0,1,4,7.87,1.31,1.31,0,0,0,.53,1.39,77.27,77.27,0,0,1,14,15.23,19.81,19.81,0,0,1,1.76,3.31c.43,1-.16,1.69-1.2,1.29a20.6,20.6,0,0,1-3.85-1.91c-4.08-2.63-7.46-6.08-10.91-9.46-1.31-1.28-2.64-2.54-4-3.81a2.13,2.13,0,0,0-1.79-.44c-2,.08-3.05,1.44-4.11,2.8-4.38,5.62-8.77,11.24-13.1,16.89-2.9,3.79-5.7,7.65-8.56,11.46a9.12,9.12,0,0,0-1.87,5.7c0,6.75,0,13.5,0,20.26a6.68,6.68,0,0,0,1.32,4.11c4.88,6.55,9.72,13.13,14.67,19.63,2.84,3.73,5.87,7.32,8.8,11a3.84,3.84,0,0,0,1.87,1.16c1.57.58,2.51.07,3.6-1.07A109.47,109.47,0,0,1,172,123.81a39.16,39.16,0,0,1,4.4-2.88,4.76,4.76,0,0,1,2-.48c.8,0,1.11.37.8,1.09a17.26,17.26,0,0,1-1.6,3.22,77.25,77.25,0,0,1-12.35,13.88c-.12.1-.23.22-.36.31a4,4,0,0,0-2,4.08,7,7,0,0,1-6.73,7.35,6.05,6.05,0,0,1-.94.05c-1.49-.26-2.44.43-3.39,1.52a75.75,75.75,0,0,1-12.71,11.69,55.94,55.94,0,0,1-5,2.86h-.63a1,1,0,0,1-.43-1.29,8.2,8.2,0,0,1,.74-1.81,51,51,0,0,1,2.93-4.45,105.66,105.66,0,0,1,10.71-11.38c1.05-1,1.66-1.92,1-3.35a3.62,3.62,0,0,1-.19-1,1.8,1.8,0,0,0-.79-1.27c-4.26-3.23-8.48-6.51-12.75-9.73-5.8-4.37-11.63-8.68-17.44-13a8.09,8.09,0,0,0-5-1.67c-6.85,0-13.69,0-20.54,0a9.31,9.31,0,0,0-5.76,2c-9.26,7.08-18.53,14.15-27.88,21.12-1.67,1.24-2.78,2.55-2.89,4.65a1.28,1.28,0,0,0,.4,1.16c1.48,1.38,2.94,2.77,4.38,4.19a67.89,67.89,0,0,1,9.43,11A23.87,23.87,0,0,1,71.19,165a1.09,1.09,0,0,1-.37,1.52H70c-1.64-1-3.36-1.83-4.89-2.93a76.21,76.21,0,0,1-13.38-12.43,2.05,2.05,0,0,0-2.32-.8c-4,.9-8.49-2.75-8.36-6.64,0-.83,0-1.67,0-2.51a1.47,1.47,0,0,0-.54-1.21c-2.32-2.19-4.71-4.32-6.89-6.65-3.34-3.57-6.61-7.22-8.66-11.75v-.79a1.08,1.08,0,0,1,1.38-.41,9,9,0,0,1,1.67.67,41.29,41.29,0,0,1,8.67,6.48c2.72,2.54,5.32,5.2,8,7.81a2,2,0,0,0,2.28.72c.5-.2,1.09-.16,1.62-.31a1.47,1.47,0,0,0,.75-.46q11.54-15.1,23.06-30.23a8.53,8.53,0,0,0,1.71-4.41A28.18,28.18,0,0,0,74.2,97c-.06-3.14-.22-6.27-.23-9.41,0-2.33.21-4.65.26-7a11.34,11.34,0,0,0-2.51-7.41c-7-9-14-18.08-20.79-27.22C49.55,44.11,48.07,43,45.82,43a1.23,1.23,0,0,0-.8.27c-.79.76-1.53,1.58-2.29,2.38A75.19,75.19,0,0,1,29.74,57a24,24,0,0,1-3.29,1.64A1.06,1.06,0,0,1,25,58.27Z" transform="translate(-24.25 -11.75)"/><rect class="cls-2" x="84.84" y="65.11" width="4.61" height="4.6"/><rect class="cls-2" x="68.71" y="83.5" width="4.61" height="4.6"/></svg>