<svg id="Layer_1" data-name="Layer 1" xmlns="http://www.w3.org/2000/svg" viewBox="0 0 251.45 276.45"><defs><style>.cls-1,.cls-2{fill:none;stroke-linecap:round;stroke-linejoin:round;stroke-width:1.45px;}.cls-1{stroke:#000;}.cls-2{stroke:#c1272c;}</style></defs><title>3-build-it</title><polyline class="cls-1" points="12.1 250.45 12.1 116.75 223.52 116.75 223.52 250.45"/><rect class="cls-1" x="22.97" y="130.21" width="189.69" height="112.85"/><rect class="cls-1" x="40.84" y="209.41" width="153.84" height="19.67"/><line class="cls-1" x1="187.54" y1="149.88" x2="187.54" y2="201.13"/><line class="cls-1" x1="131.72" y1="159.2" x2="131.72" y2="201.13"/><line class="cls-1" x1="173.59" y1="159.2" x2="173.59" y2="201.13"/><line class="cls-1" x1="103.81" y1="170.59" x2="103.81" y2="201.13"/><line class="cls-1" x1="61.94" y1="175.76" x2="61.94" y2="201.13"/><line class="cls-1" x1="75.89" y1="162.3" x2="75.89" y2="201.13"/><line class="cls-1" x1="47.98" y1="201.13" x2="47.98" y2="181.46"/><line class="cls-1" x1="89.85" y1="201.65" x2="89.85" y2="181.97"/><line class="cls-1" x1="145.68" y1="201.65" x2="145.68" y2="176.8"/><line class="cls-1" x1="117.76" y1="201.65" x2="117.76" y2="189.22"/><line class="cls-1" x1="159.63" y1="201.65" x2="159.63" y2="181.97"/><path class="cls-1" d="M175.78,262.74l-5.24,6a5.67,5.67,0,0,1-4.91,2.63H118.54a5.67,5.67,0,0,1-4.91-2.63l-5.24-6H25v5.89c0,10.18,9.3,18.87,20.78,18.87H238.39c11.48,0,20.78-8.69,20.78-18.87v-5.89Z" transform="translate(-24.28 -11.77)"/><rect class="cls-2" x="55.51" y="216.4" width="6.4" height="6.41"/><rect class="cls-2" x="116.17" y="216.4" width="6.4" height="6.41"/><rect class="cls-2" x="176.83" y="216.4" width="6.4" height="6.41"/><path class="cls-1" d="M223.34,71.88h8.27c1.89,0,1.48,2,.71,3.69,0,0-3,8-2,8.62s23.43-11.92,23.43-11.92a2.62,2.62,0,0,1,1.36-.39h17.26A2.62,2.62,0,0,0,275,69.26V15.12a2.62,2.62,0,0,0-2.62-2.62h-49a2.62,2.62,0,0,0-2.62,2.62V69.26A2.62,2.62,0,0,0,223.34,71.88Z" transform="translate(-24.28 -11.77)"/><line class="cls-1" x1="209.57" y1="19.34" x2="238.83" y2="19.34"/><line class="cls-1" x1="209.57" y1="30.33" x2="238.83" y2="30.33"/><line class="cls-1" x1="209.57" y1="41.31" x2="238.83" y2="41.31"/><path class="cls-1" d="M211.2,122.66v-10c0-1.6-.54-2.13-2.14-2.13-4.25,0-8.5,0-12.76,0-.71,0-1-.16-1.24-.92a50.62,50.62,0,0,0-5-12.05A1.08,1.08,0,0,1,190.3,96c3-2.93,5.91-5.89,8.86-8.84,1.31-1.32,1.31-2,0-3.34L182.67,67.33c-1.18-1.19-2-1.19-3.17,0-3,3-6.07,6-9.07,9.1a.91.91,0,0,1-1.33.18,51.6,51.6,0,0,0-12.26-5.1.9.9,0,0,1-.82-1.07c0-4.34,0-8.68,0-13,0-1.48-.57-2-2.06-2H130.28c-1.61,0-2.14.53-2.14,2.13q0,6.51,0,13c0,.51-.1.8-.66.94a51.29,51.29,0,0,0-12.42,5.14.91.91,0,0,1-1.33-.19q-4.51-4.58-9.07-9.09c-1.17-1.18-2-1.17-3.16,0L84.93,83.92c-1.2,1.2-1.2,2,0,3.22,3,3,6,6,9,9a1,1,0,0,1,.22,1.46,50.63,50.63,0,0,0-5,12.12c-.21.76-.53.92-1.25.92-4.28,0-8.56,0-12.84,0-1.49,0-2,.57-2,2v10" transform="translate(-24.28 -11.77)"/><path class="cls-1" d="M109,122.66a33.14,33.14,0,0,1,66.17,0" transform="translate(-24.28 -11.77)"/><path class="cls-1" d="M121.05,122.66a21.07,21.07,0,0,1,42.08,0" transform="translate(-24.28 -11.77)"/></svg>