<svg width="201" height="51" viewBox="0 0 201 51" fill="none" xmlns="http://www.w3.org/2000/svg">
<path d="M33.5953 40.7954H17.1085L14.8207 48.4575H0L17.6556 2.04297H33.4959L51.1514 48.4329H35.9577L33.5953 40.7954ZM30.5864 30.7512L25.3892 14.0764L20.2666 30.7512H30.5864Z" fill="white"/>
<path d="M49.9081 2.04297H60.3274V10.8102H49.9081V2.04297ZM49.9081 14.8377H60.3274V48.4329H49.9081V14.8377Z" fill="white"/>
<path d="M64.2313 2.04297H88.3523C93.5993 2.04297 97.5531 3.27087 100.164 5.75122C102.775 8.20702 104.093 11.7434 104.093 16.2866C104.093 20.9772 102.676 24.6363 99.816 27.264C96.9563 29.8917 92.6046 31.2178 86.7608 31.2178H78.8034V48.4329H64.2313V2.04297ZM78.8034 21.8367H82.3594C85.1693 21.8367 87.1338 21.3455 88.2529 20.3878C89.3967 19.43 89.9438 18.2021 89.9438 16.7041C89.9438 15.2551 89.4465 14.0027 88.4767 12.9958C87.482 11.9889 85.6418 11.4732 82.9313 11.4732H78.8034V21.8367Z" fill="#105686"/>
<path d="M103.372 25.2746C103.372 17.3915 105.61 11.2274 110.061 6.83153C114.513 2.46022 120.705 0.25 128.662 0.25C136.818 0.25 143.085 2.4111 147.486 6.7333C151.888 11.0555 154.101 17.0968 154.101 24.8816C154.101 30.53 153.131 35.1714 151.216 38.7814C149.302 42.3914 146.516 45.2156 142.861 47.2294C139.23 49.2431 134.68 50.25 129.259 50.25C123.738 50.25 119.163 49.3905 115.557 47.6469C111.951 45.9032 109.017 43.1527 106.754 39.3954C104.516 35.638 103.372 30.9229 103.372 25.2746ZM118.516 25.3482C118.516 30.2353 119.436 33.7471 121.276 35.859C123.117 37.9956 125.603 39.0516 128.786 39.0516C132.044 39.0516 134.555 38.0201 136.321 35.9082C138.111 33.8207 138.982 30.0634 138.982 24.6606C138.982 20.1174 138.062 16.7775 136.197 14.6901C134.332 12.6027 131.82 11.5467 128.637 11.5467C125.578 11.5467 123.141 12.6027 121.301 14.7392C119.436 16.9003 118.516 20.4121 118.516 25.3482Z" fill="#105686"/>
<path d="M155.618 2.04297H178.247C182.698 2.04297 186.304 2.6078 189.064 3.76203C191.799 4.89169 194.087 6.53707 195.877 8.67362C197.668 10.8102 198.961 13.2905 199.781 16.1147C200.577 18.9388 201 21.9349 201 25.1029C201 30.0636 200.403 33.8946 199.21 36.6451C198.016 39.3711 196.35 41.655 194.211 43.5214C192.073 45.3632 189.785 46.5911 187.348 47.2051C184.016 48.04 180.982 48.4821 178.272 48.4821H155.643V2.04297H155.618ZM170.861 12.5538V37.8976H174.591C177.774 37.8976 180.037 37.5538 181.38 36.8907C182.723 36.2276 183.767 35.0734 184.538 33.4035C185.309 31.7581 185.682 29.0567 185.682 25.3485C185.682 20.4369 184.836 17.0724 183.121 15.2551C181.405 13.4379 178.595 12.5292 174.641 12.5292H170.861V12.5538Z" fill="#105686"/>
</svg>
