<svg width="97" height="97" viewBox="0 0 97 97" fill="none" xmlns="http://www.w3.org/2000/svg">
<path opacity="0.7" d="M12.875 1H1V12.875M84.125 1H96V12.875M1 84.125V96H12.875M84.125 96H96V84.125" stroke="#CB1A20" stroke-width="2"/>
<path d="M81.9713 29.6996H75.9551C75.606 29.6996 75.3105 29.8333 75.0688 30.0473C73.135 26.9979 71.1475 24.5638 69.5898 23.0123C64.2182 17.6626 31.9886 17.6626 26.617 23.0123C25.0861 24.537 23.0986 26.9712 21.1917 30.0206C20.95 29.8333 20.6814 29.6996 20.3591 29.6996H14.3429C13.5909 29.6996 13 30.3148 13 31.037V33.7387C13 34.4609 13.5909 35.1831 14.316 35.3169L17.9687 36.0123C14.8263 43.0206 12.9463 51.7407 15.8738 60.4609V65.6502C15.8738 67.1214 16.2498 68.3251 16.7064 68.3251H23.582C24.0386 68.3251 24.4146 67.1214 24.4146 65.6502V61.4239C30.592 62.0123 39.3208 62.6543 48.0765 62.6543C56.7517 62.6543 65.5879 62.0123 71.7384 61.4506V65.677C71.7384 67.1481 72.1144 68.3519 72.571 68.3519H79.4466C79.9032 68.3519 80.2792 67.1481 80.2792 65.677V60.4877C83.2068 51.7675 81.3536 43.0473 78.2112 36.0658L81.9444 35.3436C82.6696 35.2099 83.2605 34.4877 83.2605 33.7654V31.037C83.3142 30.2881 82.6965 29.6996 81.9713 29.6996ZM26.2804 51.4198C23.5946 51.4198 21.4191 49.2531 21.4191 46.5782C21.4191 43.9033 23.5946 41.7366 26.2804 41.7366C28.9661 41.7366 31.1416 43.9033 31.1416 46.5782C31.1416 49.2531 28.9661 51.4198 26.2804 51.4198ZM25.1192 35.1296C27.3216 30.6626 29.4102 28.1852 31.2903 26.5535C32.6332 25.3765 38.9985 24.0926 48.1034 24.0926C57.2082 24.0926 63.5736 25.3498 64.9165 26.5535C66.7965 28.1852 68.8583 30.6893 71.0876 35.1296C66.1725 35.6111 57.5842 34.4877 48.1034 34.4877C38.6225 34.4877 30.0611 35.6111 25.1192 35.1296ZM69.9533 51.4198C67.2675 51.4198 65.092 49.2531 65.092 46.5782C65.092 43.9033 67.2675 41.7366 69.9533 41.7366C72.6391 41.7366 74.8146 43.9033 74.8146 46.5782C74.8146 49.2531 72.6391 51.4198 69.9533 51.4198Z" stroke="#00B9FE" stroke-width="2.5" stroke-miterlimit="10"/>
</svg>
