<svg width="97" height="97" viewBox="0 0 97 97" fill="none" xmlns="http://www.w3.org/2000/svg">
<path opacity="0.7" d="M12.875 1H1V12.875M84.125 1H96V12.875M1 84.125V96H12.875M84.125 96H96V84.125" stroke="#CB1A20" stroke-width="2"/>
<path d="M74.2697 72V65.0159L73.5281 64.517C67.5955 60.4014 61.9101 58.1565 55.4831 57.4082C55.1124 57.4082 54.8652 57.034 54.8652 56.6599V50.6735C54.8652 50.424 55.1124 50.0499 55.3595 49.9252C59.0674 48.1791 61.4157 44.4376 61.4157 40.322V29.4717C61.4157 23.61 56.5955 18.746 50.7865 18.746H46.3371C40.5281 18.746 35.7079 23.61 35.7079 29.4717V40.322C35.7079 44.4376 38.0562 48.1791 41.764 49.9252C42.0112 50.0499 42.2584 50.2993 42.2584 50.6735V56.6599C42.2584 57.034 42.0112 57.4082 41.6404 57.4082C35.0899 58.1565 29.5281 60.4014 23.4719 64.517L22.7303 65.0159V72H21V64.517C21 64.2676 21.1236 64.0181 21.3708 63.8934C27.427 59.5283 32.8652 57.034 39.1685 56.0363L40.6517 55.7868V51.0476L39.7865 50.5488C36.2022 48.3039 34.1011 44.3129 34.1011 40.1973V29.3469C34.1011 22.6122 39.5393 17 46.3371 17H50.7865C57.4607 17 63.0225 22.4875 63.0225 29.3469V40.1973C63.0225 44.4376 60.7978 48.4286 57.3371 50.5488L56.4719 51.0476V55.7868L57.9551 56.0363C64.2584 57.1587 69.573 59.5283 75.7528 63.8934C76 64.0181 76 64.2676 76 64.3923V64.517V72H74.2697Z" fill="#00B9FE" stroke="#00B9FE" stroke-miterlimit="10"/>
<path opacity="0.55" d="M4 39H92" stroke="white" stroke-miterlimit="10" stroke-dasharray="3 3"/>
</svg>
