<svg width="97" height="97" viewBox="0 0 97 97" fill="none" xmlns="http://www.w3.org/2000/svg">
<path opacity="0.7" d="M12.875 1H1V12.875M84.125 1H96V12.875M1 84.125V96H12.875M84.125 96H96V84.125" stroke="#CB1A20" stroke-width="2"/>
<path d="M51.0156 58.4009V34.0001C51.0156 32.8 50.2139 32 49.0113 32C47.8087 32 47.007 32.8 47.007 34.0001V58.4009C43.8001 59.601 42.1967 63.0012 43.3993 66.0014C44.6019 69.2015 48.0091 70.8016 51.0156 69.6016C54.022 68.4015 55.8259 65.0013 54.6233 62.0011C54.022 60.201 52.8195 59.001 51.0156 58.4009Z" fill="#00B9FE"/>
<path fill-rule="evenodd" clip-rule="evenodd" d="M49 16.962C46.0795 16.962 43.9531 19.3104 43.9531 21.8697V52.7096H41V21.8697C41 17.4595 44.7333 14 49 14C53.3492 14 56.8235 17.8324 56.8235 22.1601V54L54 52.8125V22.1601C54 19.5183 51.838 16.962 49 16.962Z" fill="#00B9FE"/>
<path fill-rule="evenodd" clip-rule="evenodd" d="M37.9008 58.4728C36.5896 61.0245 36.1828 63.9517 36.7485 66.7692C37.3143 69.5866 38.8181 72.1227 41.0084 73.9586C43.1985 75.7943 45.9437 76.8202 48.7893 76.8686C51.6348 76.9169 54.4127 75.9849 56.6628 74.2249C58.9131 72.4646 60.501 69.9813 61.1607 67.1849C61.8205 64.3883 61.512 61.4488 60.287 58.8538C59.062 56.259 56.8185 54.1659 54.2541 52.919L55.566 50.221C58.7483 51.7684 61.4845 54.3631 62.9998 57.5731C64.5151 60.7829 64.8962 64.4169 64.0806 67.8738C63.2649 71.3308 61.3009 74.4057 58.5111 76.5878C55.7212 78.7702 52.2732 79.9282 48.7383 79.8681C45.2033 79.808 41.7963 78.5335 39.0812 76.2577C36.3664 73.9822 34.5066 70.8425 33.8072 67.3598C33.1079 63.8773 33.6104 60.2583 35.2325 57.1016C36.8547 53.9448 39.5 51.4384 42.7326 49.9999L43.9522 52.7408C41.3477 53.8998 39.2119 55.9213 37.9008 58.4728Z" fill="#00B9FE"/>
</svg>
